<svg xmlns="http://www.w3.org/2000/svg" xmlns:xlink="http://www.w3.org/1999/xlink" preserveAspectRatio="xMidYMid" width="20" height="20" viewBox="0 0 20 20">
  <defs>
    <style>
      .cls-1 {
        fill: #fafafa;
        stroke: #eaeaea;
        stroke-linejoin: round;
        stroke-width: 1px;
      }

      .cls-2 {
        fill: #eb1628;
        fill-rule: evenodd;
      }
    </style>
  </defs>
  <g>
    <rect x="0.5" y="0.5" width="19" height="19" rx="2" ry="2" class="cls-1"/>
    <path d="M9.758,3.907 C9.555,3.953 9.352,4.000 9.149,4.046 C9.136,3.892 9.072,3.830 9.041,3.698 C8.965,3.655 8.963,3.619 8.862,3.593 C8.862,3.605 8.862,3.616 8.862,3.628 C8.751,3.732 8.754,4.103 8.754,4.325 C8.755,4.851 8.864,5.385 9.005,5.790 C9.005,5.837 9.005,5.883 9.005,5.930 C9.017,5.930 9.029,5.930 9.041,5.930 C9.041,5.976 9.041,6.023 9.041,6.069 C9.053,6.069 9.065,6.069 9.077,6.069 C9.089,6.139 9.101,6.209 9.113,6.279 C9.125,6.279 9.137,6.279 9.149,6.279 C9.149,6.174 9.149,6.069 9.149,5.965 C9.160,5.965 9.172,5.965 9.184,5.965 C9.184,5.546 9.184,5.128 9.184,4.709 C9.388,4.697 9.591,4.686 9.794,4.674 C9.792,5.079 9.871,5.607 9.758,6.000 C9.758,6.128 9.758,6.255 9.758,6.383 C9.746,6.383 9.734,6.383 9.722,6.383 C9.722,6.488 9.722,6.593 9.722,6.697 C9.710,6.697 9.698,6.697 9.686,6.697 C9.686,6.779 9.686,6.860 9.686,6.941 C9.674,6.941 9.662,6.941 9.650,6.941 C9.650,7.023 9.650,7.104 9.650,7.186 C9.626,7.269 9.535,7.506 9.579,7.639 C9.591,7.639 9.603,7.639 9.615,7.639 C9.615,7.674 9.615,7.709 9.615,7.744 C9.627,7.744 9.638,7.744 9.650,7.744 C9.650,7.767 9.650,7.790 9.650,7.813 C9.662,7.813 9.674,7.813 9.686,7.813 C9.686,7.848 9.686,7.883 9.686,7.918 C9.698,7.918 9.710,7.918 9.722,7.918 C9.722,7.941 9.722,7.965 9.722,7.988 C9.734,7.988 9.746,7.988 9.758,7.988 C9.758,8.023 9.758,8.058 9.758,8.092 C9.770,8.092 9.782,8.092 9.794,8.092 C9.806,8.139 9.818,8.186 9.830,8.232 C9.842,8.232 9.854,8.232 9.866,8.232 C9.878,8.279 9.889,8.325 9.901,8.372 C9.925,8.383 9.949,8.395 9.973,8.406 C9.973,8.430 9.973,8.453 9.973,8.476 C9.985,8.476 9.997,8.476 10.009,8.476 C10.009,8.499 10.009,8.523 10.009,8.546 C10.021,8.546 10.033,8.546 10.045,8.546 C10.045,8.569 10.045,8.592 10.045,8.616 C10.057,8.616 10.069,8.616 10.081,8.616 C10.081,8.639 10.081,8.662 10.081,8.685 C10.093,8.685 10.105,8.685 10.117,8.685 C10.117,8.709 10.117,8.732 10.117,8.755 L10.188,8.825 C10.188,8.848 10.188,8.871 10.188,8.895 C10.212,8.906 10.236,8.918 10.260,8.930 C10.284,8.999 10.308,9.069 10.332,9.139 C10.356,9.151 10.379,9.162 10.403,9.174 C10.427,9.244 10.451,9.313 10.475,9.383 C10.499,9.395 10.523,9.406 10.547,9.418 C10.547,9.441 10.547,9.464 10.547,9.488 C10.571,9.499 10.595,9.511 10.618,9.523 C10.618,9.546 10.618,9.569 10.618,9.592 C10.630,9.592 10.642,9.592 10.654,9.592 C10.666,9.627 10.678,9.662 10.690,9.697 C10.714,9.709 10.738,9.720 10.762,9.732 C10.762,9.755 10.762,9.778 10.762,9.802 C10.798,9.825 10.834,9.848 10.869,9.871 C10.869,9.895 10.869,9.918 10.869,9.941 C10.905,9.964 10.941,9.988 10.977,10.011 C10.977,10.034 10.977,10.057 10.977,10.081 C11.025,10.116 11.073,10.150 11.120,10.185 C11.120,10.209 11.120,10.232 11.120,10.255 C11.252,10.371 11.383,10.488 11.515,10.604 C11.598,10.697 11.682,10.790 11.766,10.883 C11.790,10.883 11.813,10.883 11.837,10.883 C11.873,10.929 11.909,10.976 11.945,11.022 C11.969,11.022 11.993,11.022 12.017,11.022 C12.041,11.057 12.064,11.092 12.088,11.127 C12.112,11.127 12.136,11.127 12.160,11.127 C12.172,11.150 12.184,11.174 12.196,11.197 C12.220,11.197 12.244,11.197 12.268,11.197 C12.292,11.232 12.315,11.267 12.339,11.301 C12.387,11.313 12.435,11.325 12.483,11.336 C12.483,11.348 12.483,11.360 12.483,11.371 C12.626,11.371 12.770,11.371 12.913,11.371 C12.913,11.360 12.913,11.348 12.913,11.336 C13.116,11.336 13.319,11.336 13.522,11.336 C13.522,11.325 13.522,11.313 13.522,11.301 C13.893,11.301 14.263,11.301 14.634,11.301 C14.761,11.281 15.063,11.217 15.243,11.267 C15.243,11.278 15.243,11.290 15.243,11.301 C15.387,11.301 15.530,11.301 15.673,11.301 C16.215,11.453 16.887,11.545 17.000,12.104 C16.845,12.127 16.689,12.150 16.534,12.173 C16.534,12.185 16.534,12.197 16.534,12.208 C16.498,12.208 16.462,12.208 16.426,12.208 C16.426,12.208 16.426,12.278 16.391,12.243 C16.391,12.220 16.391,12.197 16.391,12.173 C16.280,12.147 16.225,12.077 16.140,12.034 C16.116,12.034 16.092,12.034 16.068,12.034 C16.068,12.022 16.068,12.011 16.068,11.999 C16.032,11.999 15.996,11.999 15.960,11.999 C15.960,11.987 15.960,11.976 15.960,11.964 C15.901,11.964 15.841,11.964 15.781,11.964 C15.781,11.953 15.781,11.941 15.781,11.929 C15.709,11.929 15.638,11.929 15.566,11.929 C15.566,11.918 15.566,11.906 15.566,11.894 C14.957,11.894 14.347,11.894 13.738,11.894 C13.738,11.906 13.738,11.918 13.738,11.929 C13.761,11.929 13.785,11.929 13.809,11.929 C13.809,11.941 13.809,11.953 13.809,11.964 C13.881,11.976 13.953,11.987 14.024,11.999 C14.024,12.011 14.024,12.022 14.024,12.034 C14.072,12.034 14.120,12.034 14.168,12.034 C14.168,12.046 14.168,12.057 14.168,12.069 C14.216,12.069 14.263,12.069 14.311,12.069 C14.311,12.080 14.311,12.092 14.311,12.104 C14.359,12.104 14.407,12.104 14.455,12.104 C14.455,12.115 14.455,12.127 14.455,12.139 C14.634,12.162 14.813,12.185 14.992,12.208 C14.992,12.220 14.992,12.232 14.992,12.243 C15.422,12.278 15.853,12.313 16.283,12.348 C16.271,12.546 16.259,12.743 16.247,12.941 C15.671,12.943 14.980,12.868 14.526,12.732 C14.323,12.697 14.120,12.662 13.917,12.627 C13.917,12.615 13.917,12.604 13.917,12.592 C13.881,12.592 13.845,12.592 13.809,12.592 C13.809,12.580 13.809,12.569 13.809,12.557 C13.773,12.557 13.738,12.557 13.702,12.557 C13.702,12.546 13.702,12.534 13.702,12.522 C13.654,12.522 13.606,12.522 13.558,12.522 C13.558,12.511 13.558,12.499 13.558,12.487 C13.522,12.487 13.487,12.487 13.451,12.487 C13.451,12.476 13.451,12.464 13.451,12.453 C13.427,12.453 13.403,12.453 13.379,12.453 C13.379,12.441 13.379,12.429 13.379,12.418 C13.307,12.406 13.236,12.394 13.164,12.383 C13.164,12.371 13.164,12.359 13.164,12.348 C13.116,12.336 13.068,12.325 13.020,12.313 C13.020,12.301 13.020,12.290 13.020,12.278 C12.985,12.278 12.949,12.278 12.913,12.278 C12.913,12.266 12.913,12.255 12.913,12.243 C12.865,12.232 12.817,12.220 12.770,12.208 C12.770,12.197 12.770,12.185 12.770,12.173 C12.698,12.150 12.626,12.127 12.554,12.104 C12.554,12.092 12.554,12.080 12.554,12.069 C12.531,12.069 12.507,12.069 12.483,12.069 C12.483,12.057 12.483,12.046 12.483,12.034 C12.459,12.034 12.435,12.034 12.411,12.034 C12.411,12.022 12.411,12.011 12.411,11.999 C12.256,12.011 12.100,12.022 11.945,12.034 C11.945,12.046 11.945,12.057 11.945,12.069 C11.861,12.069 11.778,12.069 11.694,12.069 C11.501,12.123 11.237,12.153 11.049,12.208 C10.989,12.208 10.929,12.208 10.869,12.208 C10.869,12.220 10.869,12.232 10.869,12.243 C10.822,12.243 10.774,12.243 10.726,12.243 C10.726,12.255 10.726,12.266 10.726,12.278 C10.666,12.278 10.606,12.278 10.547,12.278 C10.547,12.290 10.547,12.301 10.547,12.313 C10.499,12.313 10.451,12.313 10.403,12.313 C10.403,12.325 10.403,12.336 10.403,12.348 C10.356,12.348 10.308,12.348 10.260,12.348 C10.260,12.359 10.260,12.371 10.260,12.383 C10.212,12.383 10.164,12.383 10.117,12.383 C10.117,12.394 10.117,12.406 10.117,12.418 C10.069,12.418 10.021,12.418 9.973,12.418 C9.973,12.429 9.973,12.441 9.973,12.453 C9.889,12.464 9.806,12.476 9.722,12.487 C9.722,12.499 9.722,12.511 9.722,12.522 C9.686,12.522 9.650,12.522 9.615,12.522 C9.615,12.534 9.615,12.546 9.615,12.557 C9.579,12.557 9.543,12.557 9.507,12.557 C9.507,12.569 9.507,12.580 9.507,12.592 C9.471,12.592 9.435,12.592 9.399,12.592 C9.399,12.604 9.399,12.615 9.399,12.627 C9.364,12.627 9.328,12.627 9.292,12.627 C9.292,12.639 9.292,12.650 9.292,12.662 C9.256,12.662 9.220,12.662 9.184,12.662 C9.184,12.673 9.184,12.685 9.184,12.697 C9.149,12.697 9.113,12.697 9.077,12.697 C9.077,12.708 9.077,12.720 9.077,12.732 C9.041,12.732 9.005,12.732 8.969,12.732 C8.969,12.743 8.969,12.755 8.969,12.766 C8.933,12.766 8.898,12.766 8.862,12.766 C8.862,12.778 8.862,12.790 8.862,12.801 C8.826,12.801 8.790,12.801 8.754,12.801 C8.754,12.813 8.754,12.825 8.754,12.836 C8.718,12.836 8.682,12.836 8.647,12.836 C8.647,12.848 8.647,12.859 8.647,12.871 C8.623,12.871 8.599,12.871 8.575,12.871 C8.575,12.883 8.575,12.894 8.575,12.906 C8.539,12.906 8.503,12.906 8.467,12.906 C8.467,12.918 8.467,12.929 8.467,12.941 C8.408,12.952 8.348,12.964 8.288,12.976 C8.288,12.987 8.288,12.999 8.288,13.011 C8.264,13.011 8.240,13.011 8.216,13.011 C8.216,13.022 8.216,13.034 8.216,13.045 C8.181,13.045 8.145,13.045 8.109,13.045 C8.109,13.057 8.109,13.069 8.109,13.080 C8.061,13.092 8.013,13.104 7.965,13.115 C7.965,13.127 7.965,13.138 7.965,13.150 C7.930,13.150 7.894,13.150 7.858,13.150 C7.858,13.162 7.858,13.173 7.858,13.185 C7.810,13.197 7.762,13.208 7.714,13.220 C7.714,13.231 7.714,13.243 7.714,13.255 C7.679,13.255 7.643,13.255 7.607,13.255 C7.607,13.266 7.607,13.278 7.607,13.290 C7.520,13.331 7.415,13.373 7.320,13.394 C7.290,13.538 7.204,13.635 7.141,13.743 C7.141,13.766 7.141,13.790 7.141,13.813 C7.117,13.824 7.093,13.836 7.069,13.848 C7.069,13.871 7.069,13.894 7.069,13.917 C7.057,13.917 7.045,13.917 7.033,13.917 C7.033,13.941 7.033,13.964 7.033,13.987 L6.962,14.057 C6.962,14.080 6.962,14.104 6.962,14.127 C6.938,14.138 6.914,14.150 6.890,14.162 C6.866,14.231 6.842,14.301 6.818,14.371 C6.806,14.371 6.794,14.371 6.782,14.371 C6.770,14.406 6.758,14.441 6.746,14.476 C6.723,14.487 6.699,14.499 6.675,14.510 C6.663,14.557 6.651,14.603 6.639,14.650 C6.627,14.650 6.615,14.650 6.603,14.650 C6.591,14.685 6.579,14.720 6.567,14.755 C6.543,14.766 6.519,14.778 6.496,14.789 C6.496,14.813 6.496,14.836 6.496,14.859 C6.484,14.859 6.472,14.859 6.460,14.859 C6.448,14.894 6.436,14.929 6.424,14.964 C6.400,14.975 6.376,14.987 6.352,14.999 C6.352,15.022 6.352,15.045 6.352,15.069 C6.316,15.092 6.280,15.115 6.245,15.138 C6.245,15.162 6.245,15.185 6.245,15.208 C6.209,15.231 6.173,15.255 6.137,15.278 C6.137,15.301 6.137,15.324 6.137,15.348 C6.089,15.382 6.041,15.417 5.994,15.452 C5.994,15.475 5.994,15.499 5.994,15.522 C5.934,15.568 5.874,15.615 5.814,15.661 C5.814,15.685 5.814,15.708 5.814,15.731 C5.695,15.836 5.575,15.941 5.456,16.045 C5.396,16.115 5.336,16.185 5.277,16.254 C5.253,16.254 5.229,16.254 5.205,16.254 C5.157,16.313 5.109,16.371 5.061,16.429 C5.026,16.440 4.990,16.452 4.954,16.464 C4.942,16.487 4.930,16.510 4.918,16.533 C4.894,16.533 4.870,16.533 4.846,16.533 C4.822,16.568 4.799,16.603 4.775,16.638 C4.751,16.638 4.727,16.638 4.703,16.638 C4.691,16.661 4.679,16.685 4.667,16.708 C4.643,16.708 4.619,16.708 4.595,16.708 C4.595,16.720 4.595,16.731 4.595,16.743 C4.548,16.754 4.500,16.766 4.452,16.778 C4.452,16.789 4.452,16.801 4.452,16.813 C4.392,16.824 4.332,16.836 4.273,16.847 C4.273,16.859 4.273,16.871 4.273,16.882 C4.237,16.882 4.201,16.882 4.165,16.882 C4.165,16.894 4.165,16.906 4.165,16.917 C4.117,16.917 4.070,16.917 4.022,16.917 C4.022,16.929 4.022,16.940 4.022,16.952 C3.962,16.952 3.902,16.952 3.843,16.952 C3.843,16.964 3.843,16.975 3.843,16.987 C3.702,17.026 3.396,16.968 3.341,16.917 C3.225,16.891 3.118,16.785 3.090,16.673 C3.027,16.612 2.971,16.369 3.018,16.220 C3.030,16.220 3.042,16.220 3.054,16.220 C3.054,16.173 3.054,16.127 3.054,16.080 C3.066,16.080 3.078,16.080 3.090,16.080 C3.090,16.057 3.090,16.034 3.090,16.010 C3.102,16.010 3.114,16.010 3.125,16.010 C3.125,15.975 3.125,15.941 3.125,15.906 C3.137,15.906 3.149,15.906 3.161,15.906 C3.173,15.859 3.185,15.813 3.197,15.766 C3.209,15.766 3.221,15.766 3.233,15.766 C3.245,15.720 3.257,15.673 3.269,15.627 C3.293,15.615 3.317,15.603 3.341,15.592 C3.353,15.545 3.364,15.499 3.376,15.452 C3.412,15.429 3.448,15.406 3.484,15.382 C3.484,15.359 3.484,15.336 3.484,15.313 C3.508,15.301 3.532,15.289 3.556,15.278 C3.556,15.255 3.556,15.231 3.556,15.208 C3.603,15.173 3.651,15.138 3.699,15.103 C3.699,15.080 3.699,15.057 3.699,15.034 C3.771,14.976 3.843,14.917 3.914,14.859 C3.914,14.836 3.914,14.813 3.914,14.789 C3.926,14.789 3.938,14.789 3.950,14.789 C3.974,14.755 3.998,14.720 4.022,14.685 C4.090,14.618 4.161,14.599 4.237,14.545 C4.309,14.464 4.380,14.383 4.452,14.301 C4.476,14.301 4.500,14.301 4.524,14.301 C4.548,14.266 4.571,14.231 4.595,14.197 C4.619,14.197 4.643,14.197 4.667,14.197 C4.679,14.173 4.691,14.150 4.703,14.127 C4.739,14.115 4.775,14.103 4.810,14.092 C4.810,14.080 4.810,14.069 4.810,14.057 C4.834,14.057 4.858,14.057 4.882,14.057 C4.894,14.034 4.906,14.010 4.918,13.987 C4.966,13.976 5.014,13.964 5.061,13.952 C5.073,13.929 5.085,13.906 5.097,13.883 C5.145,13.871 5.193,13.859 5.241,13.848 C5.253,13.824 5.265,13.801 5.277,13.778 C5.324,13.766 5.372,13.755 5.420,13.743 C5.432,13.720 5.444,13.697 5.456,13.673 C5.504,13.662 5.551,13.650 5.599,13.638 C5.611,13.615 5.623,13.592 5.635,13.569 C5.707,13.545 5.778,13.522 5.850,13.499 C5.862,13.476 5.874,13.452 5.886,13.429 C5.910,13.429 5.934,13.429 5.958,13.429 L6.029,13.359 C6.053,13.359 6.077,13.359 6.101,13.359 C6.101,13.348 6.101,13.336 6.101,13.325 C6.125,13.325 6.149,13.325 6.173,13.325 C6.173,13.313 6.173,13.301 6.173,13.290 C6.197,13.290 6.221,13.290 6.245,13.290 C6.257,13.266 6.268,13.243 6.280,13.220 C6.328,13.208 6.376,13.197 6.424,13.185 C6.424,13.173 6.424,13.162 6.424,13.150 C6.448,13.150 6.472,13.150 6.496,13.150 C6.496,13.138 6.496,13.127 6.496,13.115 C6.519,13.115 6.543,13.115 6.567,13.115 C6.567,13.104 6.567,13.092 6.567,13.080 C6.591,13.080 6.615,13.080 6.639,13.080 C6.639,13.069 6.639,13.057 6.639,13.045 C6.663,13.045 6.687,13.045 6.711,13.045 C6.733,13.034 6.915,12.920 6.926,12.906 C6.926,12.883 6.926,12.859 6.926,12.836 C6.938,12.836 6.950,12.836 6.962,12.836 C6.962,12.813 6.962,12.790 6.962,12.766 C6.974,12.766 6.985,12.766 6.997,12.766 C6.997,12.732 6.997,12.697 6.997,12.662 C7.009,12.662 7.021,12.662 7.033,12.662 C7.033,12.639 7.033,12.615 7.033,12.592 C7.045,12.592 7.057,12.592 7.069,12.592 C7.069,12.569 7.069,12.546 7.069,12.522 C7.081,12.522 7.093,12.522 7.105,12.522 C7.129,12.453 7.153,12.383 7.177,12.313 C7.189,12.313 7.201,12.313 7.213,12.313 C7.213,12.278 7.213,12.243 7.213,12.208 C7.224,12.208 7.236,12.208 7.248,12.208 C7.260,12.162 7.272,12.115 7.284,12.069 C7.296,12.069 7.308,12.069 7.320,12.069 C7.320,12.034 7.320,11.999 7.320,11.964 C7.332,11.964 7.344,11.964 7.356,11.964 C7.356,11.941 7.356,11.918 7.356,11.894 C7.368,11.894 7.380,11.894 7.392,11.894 C7.404,11.848 7.416,11.801 7.428,11.755 C7.440,11.755 7.452,11.755 7.464,11.755 C7.464,11.720 7.464,11.685 7.464,11.650 C7.475,11.650 7.487,11.650 7.499,11.650 C7.511,11.604 7.523,11.557 7.535,11.511 C7.547,11.511 7.559,11.511 7.571,11.511 C7.571,11.476 7.571,11.441 7.571,11.406 C7.583,11.406 7.595,11.406 7.607,11.406 C7.607,11.383 7.607,11.360 7.607,11.336 C7.619,11.336 7.631,11.336 7.643,11.336 C7.643,11.301 7.643,11.267 7.643,11.232 C7.655,11.232 7.667,11.232 7.679,11.232 C7.691,11.185 7.703,11.139 7.714,11.092 C7.726,11.092 7.738,11.092 7.750,11.092 C7.750,11.057 7.750,11.022 7.750,10.988 C7.762,10.988 7.774,10.988 7.786,10.988 C7.786,10.964 7.786,10.941 7.786,10.918 C7.798,10.918 7.810,10.918 7.822,10.918 C7.834,10.860 7.846,10.802 7.858,10.743 C7.870,10.743 7.882,10.743 7.894,10.743 C7.894,10.709 7.894,10.674 7.894,10.639 C7.906,10.639 7.918,10.639 7.930,10.639 C7.942,10.592 7.953,10.546 7.965,10.499 C7.977,10.499 7.989,10.499 8.001,10.499 C8.001,10.464 8.001,10.429 8.001,10.395 C8.013,10.395 8.025,10.395 8.037,10.395 C8.037,10.371 8.037,10.348 8.037,10.325 C8.049,10.325 8.061,10.325 8.073,10.325 C8.073,10.290 8.073,10.255 8.073,10.220 C8.085,10.220 8.097,10.220 8.109,10.220 C8.109,10.197 8.109,10.174 8.109,10.150 C8.121,10.150 8.133,10.150 8.145,10.150 C8.145,10.116 8.145,10.081 8.145,10.046 C8.157,10.046 8.169,10.046 8.181,10.046 C8.181,10.023 8.181,9.999 8.181,9.976 C8.192,9.976 8.204,9.976 8.216,9.976 C8.216,9.941 8.216,9.906 8.216,9.871 C8.228,9.871 8.240,9.871 8.252,9.871 C8.252,9.848 8.252,9.825 8.252,9.802 C8.264,9.802 8.276,9.802 8.288,9.802 C8.288,9.767 8.288,9.732 8.288,9.697 C8.300,9.697 8.312,9.697 8.324,9.697 C8.324,9.674 8.324,9.650 8.324,9.627 C8.336,9.627 8.348,9.627 8.360,9.627 C8.372,9.557 8.384,9.488 8.396,9.418 C8.408,9.418 8.420,9.418 8.431,9.418 C8.431,9.383 8.431,9.348 8.431,9.313 C8.443,9.313 8.455,9.313 8.467,9.313 C8.467,9.278 8.467,9.244 8.467,9.209 C8.479,9.209 8.491,9.209 8.503,9.209 C8.503,9.174 8.503,9.139 8.503,9.104 C8.515,9.104 8.527,9.104 8.539,9.104 C8.539,9.069 8.539,9.034 8.539,8.999 C8.551,8.999 8.563,8.999 8.575,8.999 C8.575,8.965 8.575,8.930 8.575,8.895 C8.587,8.895 8.599,8.895 8.611,8.895 C8.611,8.860 8.611,8.825 8.611,8.790 C8.623,8.790 8.635,8.790 8.647,8.790 C8.742,8.383 8.838,7.976 8.933,7.569 C8.921,7.569 8.910,7.569 8.898,7.569 C8.886,7.500 8.874,7.430 8.862,7.360 C8.850,7.360 8.838,7.360 8.826,7.360 C8.826,7.337 8.826,7.314 8.826,7.290 C8.814,7.290 8.802,7.290 8.790,7.290 C8.754,7.139 8.718,6.988 8.682,6.837 C8.671,6.837 8.659,6.837 8.647,6.837 C8.647,6.802 8.647,6.767 8.647,6.732 C8.635,6.732 8.623,6.732 8.611,6.732 C8.611,6.697 8.611,6.662 8.611,6.628 C8.599,6.628 8.587,6.628 8.575,6.628 C8.575,6.593 8.575,6.558 8.575,6.523 C8.563,6.523 8.551,6.523 8.539,6.523 C8.527,6.442 8.515,6.360 8.503,6.279 C8.491,6.279 8.479,6.279 8.467,6.279 C8.455,6.186 8.443,6.093 8.431,6.000 C8.420,6.000 8.408,6.000 8.396,6.000 C8.396,5.953 8.396,5.907 8.396,5.860 C8.384,5.860 8.372,5.860 8.360,5.860 C8.360,5.814 8.360,5.767 8.360,5.721 C8.348,5.721 8.336,5.721 8.324,5.721 C8.324,5.674 8.324,5.628 8.324,5.581 C8.312,5.581 8.300,5.581 8.288,5.581 C8.288,5.523 8.288,5.465 8.288,5.407 C8.276,5.407 8.264,5.407 8.252,5.407 C8.252,5.337 8.252,5.267 8.252,5.197 C8.240,5.197 8.228,5.197 8.216,5.197 C8.216,5.128 8.216,5.058 8.216,4.988 C8.204,4.988 8.192,4.988 8.181,4.988 C8.181,4.884 8.181,4.779 8.181,4.674 C8.169,4.674 8.157,4.674 8.145,4.674 C8.095,4.500 8.143,3.997 8.181,3.872 C8.181,3.802 8.181,3.732 8.181,3.663 C8.321,3.222 8.475,2.999 9.077,3.000 C9.158,3.090 9.301,3.099 9.399,3.174 C9.519,3.266 9.720,3.718 9.758,3.907 ZM9.328,8.581 C9.196,8.999 9.065,9.418 8.933,9.836 C8.921,9.836 8.910,9.836 8.898,9.836 C8.898,9.860 8.898,9.883 8.898,9.906 C8.886,9.906 8.874,9.906 8.862,9.906 C8.862,9.941 8.862,9.976 8.862,10.011 C8.850,10.011 8.838,10.011 8.826,10.011 C8.826,10.034 8.826,10.057 8.826,10.081 C8.814,10.081 8.802,10.081 8.790,10.081 C8.790,10.116 8.790,10.150 8.790,10.185 C8.778,10.185 8.766,10.185 8.754,10.185 C8.754,10.209 8.754,10.232 8.754,10.255 C8.742,10.255 8.730,10.255 8.718,10.255 C8.718,10.290 8.718,10.325 8.718,10.360 C8.706,10.360 8.694,10.360 8.682,10.360 C8.671,10.418 8.659,10.476 8.647,10.534 C8.635,10.534 8.623,10.534 8.611,10.534 C8.611,10.557 8.611,10.581 8.611,10.604 C8.599,10.604 8.587,10.604 8.575,10.604 C8.575,10.639 8.575,10.674 8.575,10.709 C8.297,11.308 8.016,11.945 7.750,12.557 C7.774,12.557 7.798,12.557 7.822,12.557 C7.912,12.462 7.954,12.504 8.073,12.453 C8.073,12.441 8.073,12.429 8.073,12.418 C8.097,12.418 8.121,12.418 8.145,12.418 C8.145,12.406 8.145,12.394 8.145,12.383 C8.181,12.383 8.216,12.383 8.252,12.383 C8.252,12.371 8.252,12.359 8.252,12.348 C8.288,12.348 8.324,12.348 8.360,12.348 C8.360,12.336 8.360,12.325 8.360,12.313 C8.384,12.313 8.408,12.313 8.431,12.313 C8.431,12.301 8.431,12.290 8.431,12.278 C8.467,12.278 8.503,12.278 8.539,12.278 C8.539,12.266 8.539,12.255 8.539,12.243 C8.575,12.243 8.611,12.243 8.647,12.243 C8.647,12.232 8.647,12.220 8.647,12.208 C8.671,12.208 8.694,12.208 8.718,12.208 C8.718,12.197 8.718,12.185 8.718,12.173 C9.352,11.999 9.985,11.825 10.618,11.650 C10.678,11.650 10.738,11.650 10.798,11.650 C10.961,11.600 11.203,11.561 11.371,11.511 C11.443,11.511 11.515,11.511 11.586,11.511 C11.586,11.499 11.586,11.487 11.586,11.476 C11.443,11.360 11.300,11.243 11.156,11.127 C11.132,11.092 11.108,11.057 11.085,11.022 C11.061,11.022 11.037,11.022 11.013,11.022 C11.001,10.988 10.989,10.953 10.977,10.918 C10.869,10.825 10.762,10.732 10.654,10.639 C10.654,10.615 10.654,10.592 10.654,10.569 C10.595,10.522 10.535,10.476 10.475,10.429 C10.475,10.406 10.475,10.383 10.475,10.360 C10.439,10.336 10.403,10.313 10.367,10.290 C10.356,10.255 10.344,10.220 10.332,10.185 C10.308,10.174 10.284,10.162 10.260,10.150 C10.260,10.127 10.260,10.104 10.260,10.081 C10.236,10.069 10.212,10.057 10.188,10.046 C10.176,10.011 10.164,9.976 10.152,9.941 C10.140,9.941 10.128,9.941 10.117,9.941 C10.117,9.918 10.117,9.895 10.117,9.871 C10.093,9.860 10.069,9.848 10.045,9.836 C10.033,9.790 10.021,9.743 10.009,9.697 C9.985,9.685 9.961,9.674 9.937,9.662 C9.925,9.616 9.913,9.569 9.901,9.523 C9.878,9.511 9.854,9.499 9.830,9.488 C9.806,9.418 9.782,9.348 9.758,9.278 C9.734,9.267 9.710,9.255 9.686,9.244 C9.686,9.220 9.686,9.197 9.686,9.174 L9.615,9.104 C9.615,9.081 9.615,9.058 9.615,9.034 C9.603,9.034 9.591,9.034 9.579,9.034 C9.579,9.011 9.579,8.988 9.579,8.964 C9.567,8.964 9.555,8.964 9.543,8.964 C9.531,8.918 9.519,8.871 9.507,8.825 C9.483,8.813 9.459,8.802 9.435,8.790 C9.435,8.767 9.435,8.744 9.435,8.720 C9.423,8.720 9.411,8.720 9.399,8.720 C9.359,8.650 9.393,8.635 9.328,8.581 ZM3.627,16.394 C4.033,16.377 4.414,16.153 4.667,15.975 C4.727,15.906 4.787,15.836 4.846,15.766 C4.870,15.766 4.894,15.766 4.918,15.766 C5.002,15.673 5.085,15.580 5.169,15.487 C5.205,15.464 5.241,15.441 5.277,15.417 C5.277,15.394 5.277,15.371 5.277,15.348 C5.360,15.278 5.444,15.208 5.528,15.138 C5.528,15.115 5.528,15.092 5.528,15.069 C5.563,15.045 5.599,15.022 5.635,14.999 C5.635,14.976 5.635,14.952 5.635,14.929 C5.671,14.906 5.707,14.882 5.743,14.859 C5.743,14.836 5.743,14.813 5.743,14.789 C5.778,14.766 5.814,14.743 5.850,14.720 C5.850,14.696 5.850,14.673 5.850,14.650 C5.874,14.638 5.898,14.627 5.922,14.615 C5.922,14.592 5.922,14.569 5.922,14.545 C5.946,14.534 5.970,14.522 5.994,14.510 C5.994,14.487 5.994,14.464 5.994,14.441 C6.017,14.429 6.041,14.417 6.065,14.406 C6.065,14.383 6.065,14.359 6.065,14.336 C6.089,14.324 6.113,14.313 6.137,14.301 C6.137,14.278 6.137,14.255 6.137,14.231 C6.161,14.220 6.185,14.208 6.209,14.197 C6.209,14.173 6.209,14.150 6.209,14.127 C6.260,14.040 6.324,14.006 6.352,13.883 C6.340,13.883 6.328,13.883 6.316,13.883 C6.241,13.992 6.173,13.956 6.065,14.022 C6.053,14.045 6.041,14.069 6.029,14.092 C5.958,14.115 5.886,14.138 5.814,14.162 C5.802,14.185 5.790,14.208 5.778,14.231 C5.731,14.243 5.683,14.255 5.635,14.266 C5.623,14.290 5.611,14.313 5.599,14.336 C5.551,14.348 5.504,14.359 5.456,14.371 C5.456,14.383 5.456,14.394 5.456,14.406 C5.420,14.417 5.384,14.429 5.348,14.441 C5.336,14.464 5.324,14.487 5.312,14.510 C5.265,14.522 5.217,14.534 5.169,14.545 C5.157,14.569 5.145,14.592 5.133,14.615 C5.109,14.615 5.085,14.615 5.061,14.615 C5.050,14.638 5.038,14.662 5.026,14.685 C5.002,14.685 4.978,14.685 4.954,14.685 C4.930,14.720 4.906,14.755 4.882,14.789 C4.858,14.789 4.834,14.789 4.810,14.789 C4.679,14.929 4.548,15.069 4.416,15.208 C4.332,15.278 4.249,15.348 4.165,15.417 C4.165,15.441 4.165,15.464 4.165,15.487 C4.129,15.510 4.093,15.534 4.058,15.557 C4.058,15.580 4.058,15.603 4.058,15.627 C4.022,15.650 3.986,15.673 3.950,15.696 C3.950,15.720 3.950,15.743 3.950,15.766 C3.926,15.778 3.902,15.789 3.878,15.801 C3.781,15.949 3.666,16.200 3.627,16.394 Z" class="cls-2"/>
  </g>
</svg>
